#!OML:ASF F:\VICON\USERDATA\INSTALL\rory3\rory3.ASF
:FULLY-SPECIFIED
:DEGREES
821
root 0.184167 20.2373 3.49619 1.3034 -74.4405 1.47727
lowerback 6.61624 0.0129002 -4.9706
upperback -6.25265 -0.594192 0.331641
thorax -10.3745 0.0676796 3.24586
lowerneck -22.4056 -7.37408 -14.2434
upperneck -9.14751 -6.87828 11.7643
head 1.57794 -2.9455 5.42168
rclavicle 3.81418e-014 1.15295e-014
rhumerus 85.4925 -26.6105 -33.2325
rradius 28.5614
rwrist 15.0711
rhand -35.1594 0.0278218
rfingers 7.12502
rthumb -8.29858 -29.7892
lclavicle 3.81418e-014 1.15295e-014
lhumerus 91.5655 26.4559 34.0026
lradius 26.4044
lwrist 6.34394
lhand -11.437 30.778
lfingers 7.12502
lthumb 14.5995 60.2441
rfemur -14.9956 5.49404 9.66848
rtibia 38.3658
rfoot 10.4569 -10.1562
rtoes 11.4346
lfemur -7.72765 -14.6961 -9.79752
ltibia 27.7171
lfoot 13.7023 3.67487
ltoes -11.4908
822
root 0.230851 20.0941 3.55183 2.00809 -74.6773 0.778339
lowerback 6.3746 -0.0464393 -4.72752
upperback -6.05331 -0.627874 0.283223
thorax -10.0022 0.0191623 3.0569
lowerneck -22.689 -7.18016 -13.63
upperneck -9.19176 -6.74259 11.3037
head 1.54108 -2.9063 5.18689
rclavicle 4.25896e-014 3.97569e-015
rhumerus 86.0828 -26.6745 -34.0275
rradius 28.4145
rwrist 15.4976
rhand -35.5179 -0.0806753
rfingers 7.12502
rthumb -8.64455 -29.8837
lclavicle 4.25896e-014 3.97569e-015
lhumerus 91.5906 26.6737 34.1452
lradius 26.5677
lwrist 6.15374
lhand -11.3964 30.5726
lfingers 7.12502
lthumb 14.6386 60.0359
rfemur -14.8362 5.37275 10.0806
rtibia 38.6017
rfoot 10.8739 -10.7627
rtoes 12.155
lfemur -7.78184 -15.1501 -9.55291
ltibia 27.6735
lfoot 14.2208 4.25124
ltoes -10.8868
823
root 0.277678 19.938 3.60862 2.28137 -74.9137 0.553432
lowerback 6.08039 -0.0997917 -4.55915
upperback -5.84887 -0.664796 0.187585
thorax -9.59585 -0.0274815 2.85931
lowerneck -22.7782 -7.10903 -13.3047
upperneck -9.32387 -6.72211 10.9405
head 1.47897 -2.91833 5.02237
rclavicle 9.88705e-014 8.74653e-015
rhumerus 86.6314 -26.8137 -34.7059
rradius 28.2818
rwrist 15.8061
rhand -35.8274 -0.425235
rfingers 7.12502
rthumb -8.9433 -30.2157
lclavicle 9.88705e-014 8.74653e-015
lhumerus 91.6293 26.9499 34.2012
lradius 26.716
lwrist 6.06505
lhand -11.2428 30.2646
lfingers 7.12502
lthumb 14.7865 59.7171
rfemur -14.7005 4.97671 10.3326
rtibia 38.7713
rfoot 11.6024 -11.5676
rtoes 12.7703
lfemur -7.89473 -15.5817 -9.50488
ltibia 27.7246
lfoot 14.982 4.66191
ltoes -11.6943
824
root 0.332293 19.7733 3.6654 3.24549 -75.1602 -0.389247
lowerback 6.04648 -0.100322 -4.22688
upperback -5.78035 -0.628837 0.146502
thorax -9.50235 -0.0372815 2.62254
lowerneck -22.7771 -7.19296 -13.3848
upperneck -9.31202 -6.81542 10.8958
head 1.4914 -2.96475 5.01115
rclavicle -6.21202e-015 -1.76918e-014
rhumerus 86.9138 -26.899 -35.1702
rradius 28.2542
rwrist 16.0983
rhand -36.0029 -0.784896
rfingers 7.12502
rthumb -9.11256 -30.568
lclavicle -6.21202e-015 -1.76918e-014
lhumerus 91.4568 27.1361 33.9131
lradius 26.8911
lwrist 6.45214
lhand -11.343 30.0903
lfingers 7.12502
lthumb 14.6901 59.5498
rfemur -14.5985 4.7191 10.7948
rtibia 38.9137
rfoot 12.4791 -12.6945
rtoes 13.6539
lfemur -8.0377 -15.8295 -9.26985
ltibia 27.7934
lfoot 16.1199 4.77118
ltoes -12.3672
825
root 0.391006 19.5984 3.72477 4.83985 -75.4481 -1.96565
lowerback 6.12149 -0.137397 -3.72464
upperback -5.76241 -0.626709 0.15969
thorax -9.52663 -0.0693204 2.3548
lowerneck -22.8786 -7.22243 -13.352
upperneck -9.19617 -6.85505 10.8351
head 1.53943 -2.98584 4.97861
rclavicle -1.2921e-014 0
rhumerus 87.1571 -26.9063 -35.5474
rradius 28.2454
rwrist 16.3412
rhand -36.1116 -0.915831
rfingers 7.12502
rthumb -9.21748 -30.6944
lclavicle -1.2921e-014 0
lhumerus 91.1965 27.3205 33.6688
lradius 27.0689
lwrist 6.75691
lhand -11.2525 29.9662
lfingers 7.12502
lthumb 14.7773 59.4194
rfemur -14.5533 4.59119 11.4366
rtibia 39.0108
rfoot 13.4616 -14.0838
rtoes 14.3719
lfemur -8.21513 -15.7894 -8.8668
ltibia 27.9241
lfoot 17.4261 4.55257
ltoes -12.487
826
root 0.44255 19.4094 3.78446 5.52074 -75.7501 -2.66369
lowerback 6.16496 -0.194143 -3.46792
upperback -5.73634 -0.674516 0.180861
thorax -9.52034 -0.109357 2.24018
lowerneck -22.746 -7.16871 -13.2754
upperneck -9.20366 -6.82112 10.5368
head 1.49567 -2.98437 4.87713
rclavicle 3.2551e-015 -6.36111e-015
rhumerus 87.4669 -26.7538 -35.8261
rradius 28.2301
rwrist 16.4878
rhand -36.3279 -1.00854
rfingers 7.12502
rthumb -9.42623 -30.7778
lclavicle 3.2551e-015 -6.36111e-015
lhumerus 90.8171 27.5004 33.5947
lradius 27.187
lwrist 6.81615
lhand -11.0673 29.6919
lfingers 7.12502
lthumb 14.9557 59.1319
rfemur -14.4199 4.35915 11.8142
rtibia 39.079
rfoot 14.0046 -15.1424
rtoes 14.8014
lfemur -8.31131 -15.6864 -8.78596
ltibia 28.1676
lfoot 18.2589 4.02507
ltoes -14.7728
827
root 0.484165 19.2073 3.84403 7.15891 -75.9795 -4.34193
lowerback 6.02914 -0.319857 -3.05783
upperback -5.70112 -0.780224 0.346744
thorax -9.39321 -0.184678 2.19915
lowerneck -22.4624 -7.05221 -13.2722
upperneck -9.2023 -6.70455 10.2085
head 1.42675 -2.94304 4.78845
rclavicle 2.45251e-014 6.95746e-015
rhumerus 87.9657 -26.3803 -36.33
rradius 28.2601
rwrist 16.9644
rhand -36.2976 -1.50902
rfingers 7.12502
rthumb -9.39693 -31.2795
lclavicle 2.45251e-014 6.95746e-015
lhumerus 90.2274 27.7169 33.5278
lradius 27.359
lwrist 6.70016
lhand -10.9517 29.4018
lfingers 7.12502
lthumb 15.067 58.8335
rfemur -14.1878 4.13736 12.4563
rtibia 39.2118
rfoot 12.629 -15.5183
rtoes 14.5594
lfemur -8.35388 -15.3279 -8.44399
ltibia 28.5525
lfoot 17.4294 3.29914
ltoes -19.536
828
root 0.53149 18.9831 3.90071 8.89226 -76.2318 -6.20131
lowerback 5.89668 -0.505556 -2.6171
upperback -5.54393 -0.965272 0.460934
thorax -9.1321 -0.304797 2.09412
lowerneck -22.4396 -6.77329 -12.742
upperneck -9.13275 -6.47545 9.73412
head 1.38149 -2.86116 4.57526
rclavicle -3.03147e-015 4.37326e-015
rhumerus 88.5388 -26.0918 -37.0166
rradius 28.3542
rwrist 17.3607
rhand -36.0593 -2.07837
rfingers 7.12502
rthumb -9.16699 -31.8591
lclavicle -3.03147e-015 4.37326e-015
lhumerus 89.7228 28.096 33.2866
lradius 27.5147
lwrist 6.42834
lhand -10.8149 29.3659
lfingers 7.12502
lthumb 15.1988 58.7877
rfemur -13.8319 4.19976 13.1198
rtibia 39.5073
rfoot 8.97995 -15.2344
rtoes 12.3546
lfemur -8.20123 -14.8515 -8.08572
ltibia 29.1865
lfoot 14.7098 2.55672
ltoes -24.0791
829
root 0.599891 18.7321 3.95829 8.99259 -76.6192 -6.37572
lowerback 5.94014 -0.662107 -2.44391
upperback -5.41224 -1.16171 0.373564
thorax -9.00632 -0.417286 1.92939
lowerneck -22.5134 -6.78933 -12.5813
upperneck -9.07191 -6.53591 9.73094
head 1.41192 -2.89807 4.54037
rclavicle 1.55549e-014 -2.38542e-015
rhumerus 89.1027 -25.8648 -37.7049
rradius 28.3502
rwrist 17.5875
rhand -35.9592 -1.84507
rfingers 7.12502
rthumb -9.07047 -31.63
lclavicle 1.55549e-014 -2.38542e-015
lhumerus 89.521 28.4226 33.3005
lradius 27.4418
lwrist 5.79555
lhand -10.621 29.2947
lfingers 7.12502
lthumb 15.3856 58.7022
rfemur -13.5641 4.38073 13.2268
rtibia 40.1131
rfoot 3.38015 -13.6248
rtoes 7.66913
lfemur -7.94922 -14.0834 -8.22743
ltibia 30.148
lfoot 10.7988 1.43986
ltoes -30.4827
830
root 0.674611 18.4696 4.01408 10.446 -76.9622 -7.98542
lowerback 6.01151 -0.842401 -1.91497
upperback -5.25686 -1.34464 0.396401
thorax -8.8778 -0.541078 1.68018
lowerneck -22.5368 -7.24044 -13.2693
upperneck -9.13789 -6.97204 10.3322
head 1.49121 -3.083 4.79753
rclavicle -2.96686e-014 -7.95139e-016
rhumerus 89.8583 -25.5903 -38.5349
rradius 28.1643
rwrist 17.9505
rhand -36.3215 -0.551056
rfingers 7.12502
rthumb -9.42006 -30.3205
lclavicle -2.96686e-014 -7.95139e-016
lhumerus 89.3876 28.7712 33.4649
lradius 27.2828
lwrist 5.03355
lhand -10.6971 29.198
lfingers 7.12502
lthumb 15.3123 58.6112
rfemur -13.1866 4.45023 13.6808
rtibia 41.1029
rfoot -2.75408 -10.18
rtoes 6.99042
lfemur -7.538 -12.461 -7.97664
ltibia 31.3384
lfoot 5.62271 0.429882
ltoes -38.748
831
root 0.754315 18.2236 4.06776 10.5624 -77.4239 -8.17834
lowerback 6.11184 -1.07889 -1.76863
upperback -5.10411 -1.64618 0.374571
thorax -8.76164 -0.699336 1.61498
lowerneck -22.8249 -7.57968 -13.6729
upperneck -9.02142 -7.30244 10.7186
head 1.63319 -3.2246 4.9427
rclavicle -1.87852e-014 -6.75868e-015
rhumerus 90.8352 -25.1693 -39.4702
rradius 27.9143
rwrist 18.4491
rhand -36.9468 0.986664
rfingers 7.12502
rthumb -10.0233 -28.7547
lclavicle -1.87852e-014 -6.75868e-015
lhumerus 89.1051 29.2642 33.6285
lradius 27.2011
lwrist 4.26266
lhand -10.6346 29.235
lfingers 7.12502
lthumb 15.3724 58.6435
rfemur -12.8505 4.38698 13.7329
rtibia 42.1592
rfoot -7.11925 -6.98604
rtoes 7.91505
lfemur -7.18629 -10.559 -8.07294
ltibia 32.7571
lfoot -0.09569 -0.149914
ltoes -35.4721
